<svg width="200" height="200" viewBox="0 0 200 200" xmlns="http://www.w3.org/2000/svg">
  <!-- Background -->
  <circle cx="100" cy="100" r="100" fill="#7C3AED"/>
  
  <!-- Face -->
  <circle cx="100" cy="85" r="35" fill="#FDE68A"/>
  
  <!-- Hair -->
  <path d="M70 60 Q100 40 130 60 Q125 50 120 45 Q100 35 80 45 Q75 50 70 60" fill="#92400E"/>
  <rect x="68" y="60" width="64" height="40" fill="#92400E" rx="32"/>
  
  <!-- Eyes -->
  <circle cx="90" cy="80" r="3" fill="#1F2937"/>
  <circle cx="110" cy="80" r="3" fill="#1F2937"/>
  
  <!-- Glasses -->
  <circle cx="90" cy="80" r="8" fill="none" stroke="#1F2937" stroke-width="1"/>
  <circle cx="110" cy="80" r="8" fill="none" stroke="#1F2937" stroke-width="1"/>
  <path d="M98 80 L102 80" stroke="#1F2937" stroke-width="1"/>
  
  <!-- Nose -->
  <ellipse cx="100" cy="90" rx="1.5" ry="2" fill="#F59E0B"/>
  
  <!-- Mouth -->
  <path d="M95 95 Q100 98 105 95" stroke="#1F2937" stroke-width="2" fill="none"/>
  
  <!-- Body -->
  <rect x="75" y="130" width="50" height="70" fill="#DC2626" rx="10"/>
  
  <!-- Text -->
  <text x="100" y="190" text-anchor="middle" fill="white" font-family="Arial" font-size="12" font-weight="bold">SNEHA</text>
</svg> 